
<svg width="48px" height="26px" viewBox="0 0 48 26" version="1.1" xmlns="http://www.w3.org/2000/svg" xmlns:xlink="http://www.w3.org/1999/xlink">
    <g stroke="none" stroke-width="1" fill="none" fill-rule="evenodd">
        <g transform="translate(-1099.000000, -2386.000000)" fill="#53BFC6">
            <g transform="translate(896.000000, 2386.000000)">
                <g transform="translate(203.000000, 0.000000)">
                    <path d="M8.62976621,1 C8.82070518,1.30148899 8.91703475,1.6597208 9.25556437,1.70723437 C9.55865847,1.74962058 9.76748721,1.96872992 10.0286091,2.03025828 C10.338928,2.1037505 10.6805539,2.04734949 10.9884645,2.04734949 C11.084794,2.14066751 11.1635779,2.21723615 11.2695404,2.31978342 C11.1264222,2.60418119 11.0239,2.93506707 10.8185116,3.18118052 C10.5983297,3.44506884 10.5085368,3.82175916 10.1854887,3.98515115 C9.92161452,4.11880444 9.73377187,4.34440844 9.52563119,4.52318252 C8.84169126,5.11146205 8.25132863,5.80604892 7.57770972,6.40731777 C6.71315186,7.1788151 6.362237,8.25351054 5.798365,9.20275647 C5.76224141,9.26325936 5.78494767,9.36478116 5.79698886,9.44510986 C5.80421358,9.49193978 5.84446558,9.53364234 5.88024513,9.59585436 C6.1568486,9.47895046 6.44927765,9.38426515 6.71246379,9.23830619 C7.3771378,8.87016148 8.08619223,8.71052955 8.83274637,8.5659379 C9.53767239,8.42955002 10.2271169,8.51363879 10.9155292,8.43125914 C11.8953386,8.3136716 12.7671211,8.72454435 13.6812199,8.92861342 C14.1415376,9.34529718 14.7927943,9.2793251 15.3119419,9.57261031 C15.7946218,9.84538606 16.3282188,10.0333894 16.8483985,10.2354075 C17.2323406,10.3844429 17.487958,10.6900338 17.8061896,10.9166632 C18.1299258,11.1473946 18.424419,11.3610348 18.6105415,11.7274704 C18.786687,12.0740802 19.1747575,12.2808838 19.3220042,12.6503958 C19.471659,13.0257189 19.5600758,13.4253114 19.7052582,13.803369 C19.863858,14.2169764 19.9299126,14.6534859 19.9725728,15.0804244 C20.0320907,15.6751986 19.96466,16.2815948 19.9990634,16.8801291 C20.0128248,17.1180387 19.8710827,17.2718597 19.8270463,17.4690923 C19.7307168,17.8963726 19.6478045,18.3270711 19.5783096,18.759137 C19.5125991,19.1676169 19.3013621,19.5302925 19.1351936,19.8868152 C18.9335896,20.318881 18.7615725,20.7735073 18.5083634,21.1874564 C18.2671954,21.5808961 17.8973587,21.8940071 17.7673138,22.3558117 C17.4126145,22.4986942 17.2805054,22.8623952 17.0211036,23.1009886 C16.7589496,23.3419747 16.5050524,23.5928736 16.2628523,23.8536855 C16.0082671,24.1278286 15.6659531,24.274813 15.3714598,24.4905041 C15.0401549,24.7331993 14.70885,24.9656398 14.3245638,25.1409957 C13.8793836,25.3440393 11.9988928,25.9579556 11.5058919,25.9726541 C11.3483242,25.9770978 11.2485543,25.9169367 11.1625458,25.8048184 C11.1009637,25.8608775 11.0417898,25.9145439 10.9478684,26 C10.5388118,25.7149186 10.0709254,25.5672505 9.58927751,25.6458701 C8.83893899,25.3060968 8.12885246,24.9635889 7.39777985,24.6733801 C7.25741391,24.6176627 7.08883717,24.5804039 6.98321868,24.4870859 C6.58792342,24.1377415 6.05123011,24.0799732 5.61396268,23.7887389 C5.21419498,23.5227997 4.74596447,23.2913847 4.40433854,22.9810082 C4.0293413,22.6398676 3.62957359,22.3428224 3.23943884,22.0256095 C2.83038222,21.6930145 2.63256257,21.1631869 2.28095965,20.7970931 C1.68922087,20.180784 1.28463669,19.4711569 0.899662456,18.7341838 C0.676384279,18.3069035 0.557004422,17.8348442 0.382923133,17.3914981 C0.222259175,16.9816509 0.124897505,16.5133517 0.0234074253,16.0655619 C-0.0171886067,15.8874715 -0.0223491193,15.6834024 0.181319109,15.5634221 C0.141411145,15.5234286 0.0701960724,15.4865116 0.0681318673,15.4461764 C0.0364807237,14.7314219 -0.0997568075,14.0176928 0.134530462,13.303622 C0.215378492,13.0575085 0.189575929,12.7703761 0.177878767,12.5034114 C0.155860581,11.9978533 0.263543276,11.5275032 0.422487062,11.0472401 C0.567325448,10.6100469 0.757920378,10.162599 0.663310981,9.66968839 C0.770305608,9.57705402 0.873515859,9.48817972 0.986015032,9.39041798 C0.977070144,8.50133311 1.57224926,7.83204124 1.8364675,7.04105993 C2.17671729,6.89715192 2.33978949,6.64386015 2.32946846,6.27434814 C2.32327585,6.05865704 2.7416214,6.23127829 2.65767706,5.93286572 C2.96180327,5.6689774 3.04987602,5.27075215 3.27487436,4.95832479 C3.49127186,4.65786127 3.85526001,4.49515293 4.00181856,4.10957518 C4.05170352,3.97797285 4.3465408,3.91473536 4.49275532,3.75476161 C4.71396929,3.5120664 5.01155885,3.32098664 5.17359895,3.04752724 C5.32669415,2.78944994 5.69859509,2.70946306 5.73712692,2.48317541 C5.79974113,2.1150307 6.36498928,2.23501101 6.28895772,1.81730178 C6.51361204,1.73116207 6.73000953,1.60434527 6.8425087,1.40232714 C6.9935397,1.13091869 7.31452358,1.33156952 7.47690771,1.12066396 C7.57358131,0.995214461 7.80029983,1.02461135 7.85018479,1.0789614 C8.13298087,1.38899599 8.37724513,1.21193103 8.62976621,1 Z M35.6547078,0.00802686817 C35.8713603,0.00732321547 36.1068059,0.119907646 36.2486406,0.39011028 C36.3713276,0.624426626 36.7025116,0.430922136 36.9074627,0.478770519 C37.0081654,0.672978662 36.8592389,0.776063781 36.8400913,0.905887703 C36.8404458,1.04626641 36.9836989,1.05084016 37.0783736,1.15744354 C37.1539005,1.23132707 36.9386664,1.33546767 37.0570983,1.43257174 C37.7861287,1.30274782 37.8574006,2.0676183 38.3094987,2.34907937 C38.3992092,2.3293771 38.5027485,2.30686021 38.6091245,2.2839915 C38.8062748,2.34345015 38.7952826,2.53625099 38.876483,2.70547946 C38.6690497,2.90039126 38.3931812,3.0625832 38.408783,3.35459907 C37.9464019,3.610025 37.452108,3.66490991 37.1109955,4.02729104 C37.0404328,4.10223005 36.9074627,4.1535967 36.8017959,4.15535583 C36.097232,4.16802158 35.6568353,4.6957611 35.1391386,5.03140343 C33.8562438,5.86312092 32.8587912,7.0167595 31.842191,8.14014103 C31.7088664,8.28755627 31.6581605,8.47120962 31.5914982,8.73050563 C32.1942957,8.34314483 32.7570248,7.99870684 33.3016701,7.62823369 C34.5693177,6.7669628 35.2274307,6.58823501 36.520254,6.47705789 C36.9631329,6.43906064 37.4138126,6.48303894 37.8535002,6.43132046 C38.3123354,6.37749103 38.7396125,6.54671951 39.1874555,6.572051 C39.6416812,6.59773433 40.0675398,6.94533876 40.5274389,7.0755145 C41.3954672,7.32073747 42.044361,7.91849043 42.7712638,8.38501216 C43.1389703,8.62108764 43.2662669,9.1386242 43.724393,9.30820449 C43.9073597,9.79548398 44.4073271,9.96049054 44.7651051,10.255321 C45.0491291,10.4892855 45.0987712,10.9920454 45.5881009,10.9843052 C45.7118517,11.3811653 46.0416174,11.6358876 46.2834455,11.9483094 C46.5110902,12.2431399 46.7571734,12.5238973 46.9142554,12.8616506 C47.080202,13.2187543 47.2968545,13.5751544 47.3557159,13.9526641 C47.4354979,14.461405 47.7372512,14.8997806 47.7432792,15.4285756 C47.7478888,15.8328241 47.6478954,16.2631077 48,16.5998055 C47.854974,16.659616 47.8024952,16.6810774 47.7500163,16.7025388 C47.8794405,17.0170716 47.7907938,17.3157721 47.7471796,17.6376932 C47.6603059,18.2773135 47.407131,18.8469204 47.1603386,19.4235638 C47.09474,19.5762564 47.2209729,19.6835634 47.1869326,19.8281641 C47.1667211,20.0100583 46.8926256,19.9411003 46.8571669,20.152548 C46.7589464,20.7393943 46.3504624,21.1876211 46.0281431,21.6428844 C45.672138,22.145996 45.3200334,22.6800684 44.8197115,23.0797432 C44.6161787,23.2422869 44.4360486,23.4220702 44.2825125,23.6521646 C44.0619596,23.9818259 43.697799,24.2003101 43.3137815,24.3325968 C43.1017387,24.4057766 42.8744485,24.3881853 42.6932547,24.5848563 C42.5347544,24.7568993 42.1932874,24.6851268 42.0830109,24.9725689 C42.0688275,25.008807 41.9741528,25.006696 41.9326661,25.041175 C41.6688536,25.2593074 41.2990196,25.085857 41.0149956,25.3212288 C40.7862872,25.5105114 40.4494298,25.5530824 40.1579595,25.655112 C39.8459231,25.76453 39.4955914,25.6924056 39.2115674,25.8862619 C38.2896419,25.7778994 37.3822544,26.0185486 36.4638747,25.9988463 C36.1979347,25.9932171 35.9678079,25.7194962 35.6784651,25.8978722 C35.1483579,25.5745438 34.5182572,25.5734883 33.9519822,25.3683735 C33.6736316,25.2677512 33.3573402,25.2054779 33.2800403,24.8656137 C33.1385602,24.9166285 33.0609057,24.9447746 32.9804145,24.9739762 C32.9428283,24.8335975 32.8758114,24.7298087 32.7194387,24.6823122 C31.8627571,24.4223125 31.3237852,23.7288628 30.6756006,23.1863465 C30.4366092,22.9858055 30.260025,22.6962524 29.9983399,22.5421525 C29.6029757,22.3092435 29.5075919,21.844129 29.1689615,21.5996097 C28.839905,21.3624788 28.4888642,21.1672151 28.3509299,20.756282 C27.5438905,20.1792868 27.2520656,19.2166899 26.6372122,18.4922794 C26.4287151,18.2463528 26.4184321,17.8403452 26.2234094,17.5761236 C25.6238032,16.7637566 25.6429509,15.7427565 25.2330486,14.8712827 C25.314249,14.3998354 24.9422875,13.948794 25.1663863,13.4703102 C24.895482,12.8862784 25.0195874,12.2635458 25.0940506,11.6830323 C25.1670955,11.1130736 25.1887253,10.5223572 25.3507714,9.9706935 C25.5163634,9.40812318 25.7163504,8.82655423 26.0429248,8.34842222 C26.2298629,8.07540498 26.346451,7.76365869 26.5150528,7.49766671 L26.6531686,7.30807172 C26.9102439,7.00514923 27.014847,6.64100897 27.2300812,6.33914196 C27.593178,5.83110472 28.0353477,5.37865604 28.4303573,4.8920802 C28.7310469,4.52195889 29.135985,4.25914461 29.4579497,3.93018697 C30.403278,2.96512731 31.4879589,2.16894428 32.6013613,1.44347836 C33.3456388,0.958309828 34.049139,0.276118544 35.0402089,0.236713993 C35.1526129,-0.0683194489 35.4628763,0.0090823472 35.6547078,0.00802686817 Z" id="Combined-Shape"></path>
                </g>
            </g>
        </g>
    </g>
</svg>
